<svg viewBox="0 0 783.1 94.301" xmlns="http://www.w3.org/2000/svg"><g id="svgGroup" stroke-linecap="round" fill-rule="evenodd" font-size="9pt" stroke="#000" stroke-width="0.25mm" fill="#000" style="stroke:#000;stroke-width:0.25mm;fill:#000"><path d="M 676.1 55.901 L 676.2 51.201 L 712.7 51.201 Q 712.7 42.901 708.85 37.801 Q 705 32.701 696.9 32.701 Q 688.1 32.701 684 38.101 Q 679.9 43.501 679.9 53.701 Q 679.9 63.901 683.9 69.351 Q 687.9 74.801 697.6 74.801 Q 703.9 74.801 706.95 72.601 Q 710 70.401 711.1 66.801 L 717.4 66.801 Q 716.2 70.601 714 73.551 Q 711.8 76.501 707.9 78.151 Q 704 79.801 697.6 79.801 Q 686 79.801 680.1 73.051 Q 674.2 66.301 674.2 53.701 Q 674.2 41.101 680.05 34.401 Q 685.9 27.701 696.9 27.701 Q 702.8 27.701 707.65 30.201 Q 712.5 32.701 715.45 38.401 Q 718.4 44.101 718.4 53.701 L 718.4 55.901 L 676.1 55.901 Z M 3.4 49.601 L 0 49.601 L 0 44.401 L 3.4 44.401 Q 6.8 44.401 9.25 42.751 Q 11.7 41.101 11.7 36.801 L 11.7 12.601 Q 11.7 7.001 15.35 3.501 Q 19 0.001 24.8 0.001 L 32.1 0.001 L 32.1 5.201 L 25.6 5.201 Q 21.2 5.201 19.2 7.401 Q 17.2 9.601 17.2 14.001 L 17.2 37.501 Q 17.2 41.801 14.55 44.451 Q 11.9 47.101 8.2 48.001 L 8.2 46.001 Q 11.9 46.901 14.55 49.551 Q 17.2 52.201 17.2 56.601 L 17.2 80.101 Q 17.2 84.401 19.2 86.651 Q 21.2 88.901 25.6 88.901 L 32.1 88.901 L 32.1 94.101 L 25.1 94.101 Q 21.2 94.101 18.15 92.501 Q 15.1 90.901 13.4 88.051 Q 11.7 85.201 11.7 81.501 L 11.7 57.301 Q 11.7 52.901 9.25 51.251 Q 6.8 49.601 3.4 49.601 Z M 783.1 44.401 L 783.1 49.601 L 779.7 49.601 Q 776.3 49.601 773.85 51.251 Q 771.4 52.901 771.4 57.301 L 771.4 81.501 Q 771.4 85.201 769.65 88.051 Q 767.9 90.901 764.9 92.501 Q 761.9 94.101 758 94.101 L 751 94.101 L 751 88.901 L 757.5 88.901 Q 761.9 88.901 763.9 86.651 Q 765.9 84.401 765.9 80.101 L 765.9 56.601 Q 765.9 52.201 768.55 49.551 Q 771.2 46.901 774.9 46.001 L 774.9 48.001 Q 771.2 47.101 768.55 44.451 Q 765.9 41.801 765.9 37.501 L 765.9 14.001 Q 765.9 9.601 763.9 7.401 Q 761.9 5.201 757.5 5.201 L 751 5.201 L 751 0.001 L 758.3 0.001 Q 764.1 0.001 767.75 3.501 Q 771.4 7.001 771.4 12.601 L 771.4 36.801 Q 771.4 41.101 773.85 42.751 Q 776.3 44.401 779.7 44.401 L 783.1 44.401 Z M 164 58.101 L 164 28.801 L 169.7 28.801 L 169.7 78.901 L 164 78.901 L 164 70.401 Q 161.8 74.701 157.9 77.251 Q 154 79.801 147.2 79.801 Q 138.7 79.801 134.05 75.051 Q 129.4 70.301 129.4 60.001 L 129.4 28.701 L 135.1 28.701 L 135 59.701 Q 135 68.201 138.6 71.501 Q 142.2 74.801 148.6 74.801 Q 153 74.801 156.5 73.201 Q 160 71.601 162 67.901 Q 164 64.201 164 58.101 Z M 383.7 49.401 L 383.7 78.801 L 378 78.801 L 378 28.701 L 383.7 28.701 L 383.7 37.101 Q 386 32.801 389.9 30.251 Q 393.8 27.701 400.5 27.701 Q 409 27.701 413.65 32.451 Q 418.3 37.201 418.3 47.501 L 418.3 78.801 L 412.6 78.801 L 412.6 47.801 Q 412.6 39.301 409.1 36.001 Q 405.6 32.701 399.1 32.701 Q 394.7 32.701 391.2 34.301 Q 387.7 35.901 385.7 39.551 Q 383.7 43.201 383.7 49.401 Z M 440.4 49.401 L 440.4 78.801 L 434.7 78.801 L 434.7 28.701 L 440.4 28.701 L 440.4 37.101 Q 442.7 32.801 446.6 30.251 Q 450.5 27.701 457.2 27.701 Q 465.7 27.701 470.35 32.451 Q 475 37.201 475 47.501 L 475 78.801 L 469.3 78.801 L 469.3 47.801 Q 469.3 39.301 465.8 36.001 Q 462.3 32.701 455.8 32.701 Q 451.4 32.701 447.9 34.301 Q 444.4 35.901 442.4 39.551 Q 440.4 43.201 440.4 49.401 Z M 634.9 73.601 L 634.9 78.801 L 630.2 78.801 Q 627.1 78.801 625.3 76.851 Q 623.5 74.901 623.5 69.201 L 624.2 69.201 Q 621.7 74.701 616.7 77.251 Q 611.7 79.801 605.5 79.801 Q 600.1 79.801 596.35 78.051 Q 592.6 76.301 590.65 72.901 Q 588.7 69.501 588.7 64.701 Q 588.7 61.301 589.9 58.601 Q 591.1 55.901 593.45 54.051 Q 595.8 52.201 599.25 51.251 Q 602.7 50.301 607.1 50.301 L 623.5 50.301 L 623.5 44.801 Q 623.5 38.801 620.2 35.751 Q 616.9 32.701 610.3 32.701 Q 604.3 32.701 600.95 35.251 Q 597.6 37.801 597 41.901 L 591.1 41.901 Q 591.6 37.501 593.9 34.301 Q 596.2 31.101 600.4 29.401 Q 604.6 27.701 610.6 27.701 Q 615.2 27.701 618.7 28.851 Q 622.2 30.001 624.5 32.301 Q 626.8 34.601 628 37.901 Q 629.2 41.201 629.2 45.601 L 629.2 73.601 L 634.9 73.601 Z M 68.5 78.801 L 68.5 8.101 L 92.9 8.101 Q 100.5 8.101 105.15 10.451 Q 109.8 12.801 111.9 17.001 Q 114 21.201 114 26.601 Q 114 31.301 112 34.551 Q 110 37.801 106.95 39.651 Q 103.9 41.501 100.7 42.001 L 100.7 42.601 Q 103.4 42.701 106.2 43.851 Q 109 45.001 111.45 47.201 Q 113.9 49.401 115.4 52.651 Q 116.9 55.901 116.9 60.301 Q 116.9 65.801 114.65 69.951 Q 112.4 74.101 107.35 76.451 Q 102.3 78.801 93.7 78.801 L 68.5 78.801 Z M 584 28.701 L 564.9 78.801 L 558.4 78.801 L 539.3 28.701 L 545.4 28.701 L 561.3 72.801 L 562 72.801 L 578.1 28.701 L 584 28.701 Z M 666.8 28.701 L 666.8 33.701 L 654.4 33.701 L 654.4 73.801 L 666.3 73.801 L 666.3 78.801 L 659.9 78.801 Q 653.8 78.801 651.25 76.801 Q 648.7 74.801 648.7 68.701 L 648.7 33.701 L 639.8 33.701 L 639.8 28.701 L 648.7 28.701 L 648.7 13.701 L 654.4 13.701 L 654.4 28.701 L 666.8 28.701 Z M 511.4 79.801 Q 500.2 79.801 494.2 73.051 Q 488.2 66.301 488.2 53.701 Q 488.2 41.101 494.2 34.401 Q 500.2 27.701 511.4 27.701 Q 518.9 27.701 524.05 30.701 Q 529.2 33.701 531.9 39.501 Q 534.6 45.301 534.6 53.701 Q 534.6 66.301 528.6 73.051 Q 522.6 79.801 511.4 79.801 Z M 213.9 7.101 L 213.9 78.801 L 208.2 78.801 L 208.2 7.101 L 213.9 7.101 Z M 266.3 78.801 L 266.3 7.101 L 272 7.101 L 272 78.801 L 266.3 78.801 Z M 354 8.101 L 354 78.801 L 348 78.801 L 348 8.101 L 354 8.101 Z M 248.5 79.801 Q 238.3 79.801 232.8 73.101 Q 227.3 66.401 227.3 53.901 Q 227.3 45.501 229.75 39.651 Q 232.2 33.801 236.95 30.751 Q 241.7 27.701 248.5 27.701 Q 255.1 27.701 259.7 30.751 Q 264.3 33.801 266.65 39.651 Q 269 45.501 269 53.901 Q 269 62.201 266.65 68.001 Q 264.3 73.801 259.7 76.801 Q 255.1 79.801 248.5 79.801 Z M 511.4 74.701 Q 519.8 74.701 524.35 69.301 Q 528.9 63.901 528.9 53.701 Q 528.9 43.501 524.35 38.151 Q 519.8 32.801 511.4 32.801 Q 503 32.801 498.45 38.151 Q 493.9 43.501 493.9 53.701 Q 493.9 63.901 498.45 69.301 Q 503 74.701 511.4 74.701 Z M 250.4 74.701 Q 258.1 74.701 262.2 69.301 Q 266.3 63.901 266.3 53.901 Q 266.3 43.801 262.2 38.301 Q 258.1 32.801 250.4 32.801 Q 242 32.801 237.5 38.301 Q 233 43.801 233 53.901 Q 233 63.901 237.5 69.301 Q 242 74.701 250.4 74.701 Z M 74.5 73.601 L 93.6 73.601 Q 100.7 73.601 104.4 71.751 Q 108.1 69.901 109.45 66.801 Q 110.8 63.701 110.8 60.201 Q 110.8 56.101 109.15 52.751 Q 107.5 49.401 103.85 47.401 Q 100.2 45.401 94.1 45.401 L 74.5 45.401 L 74.5 73.601 Z M 186.1 28.701 L 191.8 28.701 L 191.8 78.801 L 186.1 78.801 L 186.1 28.701 Z M 74.5 40.201 L 92.5 40.201 Q 100.5 40.201 104.25 36.551 Q 108 32.901 108 26.701 Q 108 23.101 106.8 20.051 Q 105.6 17.001 102.35 15.151 Q 99.1 13.301 92.9 13.301 L 74.5 13.301 L 74.5 40.201 Z M 623.5 60.401 L 623.5 55.301 L 607.2 55.301 Q 601.2 55.301 598.05 57.801 Q 594.9 60.301 594.7 64.601 Q 594.6 69.401 597.65 72.051 Q 600.7 74.701 606.5 74.701 Q 614.5 74.701 619 70.951 Q 623.5 67.201 623.5 60.401 Z M 364.8 13.301 L 337.1 13.301 L 337.1 8.101 L 364.8 8.101 L 364.8 13.301 Z M 364.8 78.801 L 337.1 78.801 L 337.1 73.601 L 364.8 73.601 L 364.8 78.801 Z M 297.5 69.501 L 290.2 94.301 L 285 94.301 L 289.6 69.501 L 297.5 69.501 Z M 185.5 15.201 L 185.5 7.101 L 192.4 7.101 L 192.4 15.201 L 185.5 15.201 Z" vector-effect="non-scaling-stroke"/></g></svg>